<svg xmlns="http://www.w3.org/2000/svg" xmlns:xlink="http://www.w3.org/1999/xlink" version="1.1" width="256" height="256" viewBox="0 0 256 256" xml:space="preserve">

<defs>
</defs>
<g style="stroke: none; stroke-width: 0; stroke-dasharray: none; stroke-linecap: butt; stroke-linejoin: miter; stroke-miterlimit: 10; fill: none; fill-rule: nonzero; opacity: 1;" transform="translate(40.54163424124515 40.54163424124512) scale(1.93 1.93)" >
	<path d="M 53.288 68.284 c 14.885 -3.331 25.861 -7.685 25.36 -10.259 c -0.559 -2.875 -15.222 -2.44 -32.751 0.97 c -13.146 2.558 -23.817 6.058 -28.271 8.864 C 18.413 77.188 31.769 76.114 53.288 68.284 z" style="stroke: none; stroke-width: 1; stroke-dasharray: none; stroke-linecap: butt; stroke-linejoin: miter; stroke-miterlimit: 10; fill: rgb(247,89,89); fill-rule: nonzero; opacity: 1;" transform=" matrix(1 0 0 1 0 0) " stroke-linecap="round" />
	<path d="M 35.165 7.687 c -0.609 -0.942 -2.062 -0.643 -2.268 0.46 l -8.609 46.138 c -0.152 0.815 0.522 1.556 1.347 1.475 c 11.271 -1.102 20.861 -3.604 27.555 -8.522 C 48.575 32.941 42.503 19.808 35.165 7.687 z" style="stroke: none; stroke-width: 1; stroke-dasharray: none; stroke-linecap: butt; stroke-linejoin: miter; stroke-miterlimit: 10; fill: rgb(255,222,85); fill-rule: nonzero; opacity: 1;" transform=" matrix(1 0 0 1 0 0) " stroke-linecap="round" />
	<path d="M 0.308 67.81 c 5.934 -3.71 11.868 -3.621 17.801 0.267 c 5.017 3.287 12.846 3.195 17.891 -0.071 c 6 -3.884 12 -3.884 18 0 c 5.045 3.266 12.874 3.358 17.891 0.071 c 5.934 -3.888 11.868 -3.976 17.801 -0.267 C 89.887 67.932 90 68.108 90 68.289 v 8.103 c -6 -3.884 -11.999 -3.185 -17.999 0.698 c -5.07 3.281 -12.916 3.301 -17.98 0.015 c -6.014 -3.903 -12.029 -3.903 -18.043 0 c -5.064 3.286 -12.91 3.266 -17.98 -0.015 C 11.999 73.206 6 72.508 0 76.391 v -8.103 C 0 68.108 0.113 67.932 0.308 67.81 z" style="stroke: none; stroke-width: 1; stroke-dasharray: none; stroke-linecap: butt; stroke-linejoin: miter; stroke-miterlimit: 10; fill: rgb(51,204,204); fill-rule: nonzero; opacity: 1;" transform=" matrix(1 0 0 1 0 0) " stroke-linecap="round" />
	<path d="M 90 76.391 c -6.036 -3.907 -12.073 -3.884 -18.109 0.071 C 66.874 79.749 59.045 79.657 54 76.391 c -6 -3.884 -12 -3.884 -18 0 c -5.045 3.266 -12.874 3.358 -17.891 0.071 C 12.073 72.508 6.036 72.484 0 76.391 v 7.693 c 0 0.537 0.904 0.822 1.521 0.49 c 5.529 -2.974 11.059 -2.65 16.588 0.972 c 5.017 3.287 12.846 3.195 17.891 -0.071 c 6 -3.884 12 -3.884 18 0 c 5.045 3.266 12.874 3.358 17.891 0.071 c 5.529 -3.623 11.059 -3.947 16.588 -0.972 C 89.096 84.907 90 84.621 90 84.085 V 76.391 z" style="stroke: none; stroke-width: 1; stroke-dasharray: none; stroke-linecap: butt; stroke-linejoin: miter; stroke-miterlimit: 10; fill: rgb(56,228,228); fill-rule: nonzero; opacity: 1;" transform=" matrix(1 0 0 1 0 0) " stroke-linecap="round" />
	<path d="M 55.732 38.778 c 1.526 -1.583 1.509 -2.906 1.226 -3.736 c -0.025 -0.075 -0.06 -0.146 -0.102 -0.212 c -1.315 -2.077 -5.253 -2.227 -7.879 -1.462 C 44.725 21.793 39.392 11.45 33.011 2.453 c -0.319 -0.45 -0.942 -0.558 -1.394 -0.237 c -0.45 0.319 -0.557 0.943 -0.237 1.394 c 7.457 10.513 13.466 22.905 17.968 36.994 c -9.912 4.875 -27.695 8.537 -29.672 6.915 c -0.063 -0.316 0.022 -0.655 0.261 -1.035 c 1.014 -1.611 4.391 -3.272 6.91 -3.813 c 0.54 -0.116 0.884 -0.647 0.768 -1.188 c -0.116 -0.54 -0.643 -0.883 -1.188 -0.768 c -2.335 0.501 -6.622 2.221 -8.183 4.703 c -0.535 0.851 -0.709 1.752 -0.515 2.555 c 0.097 0.52 0.465 1.215 1.676 1.579 c 0.643 0.192 1.516 0.283 2.569 0.283 c 6.49 0 19.793 -3.43 27.961 -7.339 c 1.867 6.086 3.465 12.473 4.773 19.165 c 0.094 0.478 0.512 0.809 0.98 0.809 c 0.063 0 0.128 -0.006 0.192 -0.019 c 0.542 -0.105 0.896 -0.631 0.79 -1.173 c -1.345 -6.883 -2.994 -13.45 -4.926 -19.703 C 53.459 40.645 54.844 39.699 55.732 38.778 z M 49.652 35.252 c 2.025 -0.554 4.716 -0.314 5.441 0.548 c 0.134 0.783 -0.937 1.978 -2.906 3.231 c -0.33 0.21 -0.683 0.418 -1.046 0.625 C 50.662 38.168 50.164 36.702 49.652 35.252 z" style="stroke: none; stroke-width: 1; stroke-dasharray: none; stroke-linecap: butt; stroke-linejoin: miter; stroke-miterlimit: 10; fill: rgb(218,70,70); fill-rule: nonzero; opacity: 1;" transform=" matrix(1 0 0 1 0 0) " stroke-linecap="round" />
</g>
</svg>