<svg xmlns="http://www.w3.org/2000/svg" xmlns:xlink="http://www.w3.org/1999/xlink" width="500" zoomAndPan="magnify" viewBox="0 0 375 374.999991" height="500" preserveAspectRatio="xMidYMid meet" version="1.0"><defs><clipPath id="845bf9a3ba"><path d="M 99.859375 99.859375 L 276.242188 99.859375 L 276.242188 276.242188 L 99.859375 276.242188 Z M 99.859375 99.859375 " clip-rule="nonzero"/></clipPath><clipPath id="59757e9691"><path d="M 188.050781 99.859375 C 139.34375 99.859375 99.859375 139.34375 99.859375 188.050781 C 99.859375 236.757812 139.34375 276.242188 188.050781 276.242188 C 236.757812 276.242188 276.242188 236.757812 276.242188 188.050781 C 276.242188 139.34375 236.757812 99.859375 188.050781 99.859375 " clip-rule="nonzero"/></clipPath><clipPath id="73307c3eb1"><path d="M 6.382812 6.382812 L 368.589844 6.382812 L 368.589844 368.589844 L 6.382812 368.589844 Z M 6.382812 6.382812 " clip-rule="nonzero"/></clipPath><clipPath id="136dc1f22d"><path d="M 184 6.382812 L 191 6.382812 L 191 368.589844 L 184 368.589844 Z M 184 6.382812 " clip-rule="nonzero"/></clipPath></defs><g clip-path="url(#845bf9a3ba)"><g clip-path="url(#59757e9691)"><path fill="#000000" d="M 99.859375 99.859375 L 276.242188 99.859375 L 276.242188 276.242188 L 99.859375 276.242188 Z M 99.859375 99.859375 " fill-opacity="1" fill-rule="nonzero"/></g></g><path fill="#ffbd59" d="M 187.488281 21 C 95.683594 21 21 95.683594 21 187.488281 C 21 279.289062 95.683594 353.976562 187.488281 353.976562 C 279.289062 353.976562 353.976562 279.289062 353.976562 187.488281 C 353.976562 95.683594 279.289062 21 187.488281 21 Z M 187.488281 337.074219 C 104.871094 337.074219 37.898438 270.101562 37.898438 187.488281 C 37.898438 104.871094 104.871094 37.898438 187.488281 37.898438 C 270.101562 37.898438 337.074219 104.871094 337.074219 187.488281 C 337.074219 270.101562 270.101562 337.074219 187.488281 337.074219 Z M 187.488281 337.074219 " fill-opacity="1" fill-rule="nonzero"/><path fill="#b7e5ff" d="M 271.253906 187.488281 C 271.253906 188.859375 271.21875 190.226562 271.152344 191.597656 C 271.085938 192.964844 270.984375 194.332031 270.851562 195.699219 C 270.714844 197.0625 270.546875 198.421875 270.347656 199.777344 C 270.144531 201.132812 269.910156 202.484375 269.644531 203.828125 C 269.378906 205.171875 269.078125 206.511719 268.742188 207.839844 C 268.410156 209.171875 268.046875 210.492188 267.648438 211.804688 C 267.25 213.113281 266.820312 214.417969 266.355469 215.707031 C 265.894531 217 265.402344 218.277344 264.878906 219.542969 C 264.351562 220.808594 263.796875 222.0625 263.210938 223.300781 C 262.625 224.542969 262.007812 225.765625 261.363281 226.972656 C 260.714844 228.183594 260.042969 229.375 259.335938 230.550781 C 258.632812 231.726562 257.898438 232.886719 257.136719 234.027344 C 256.375 235.164062 255.585938 236.285156 254.769531 237.386719 C 253.953125 238.488281 253.109375 239.570312 252.238281 240.628906 C 251.371094 241.6875 250.476562 242.726562 249.554688 243.742188 C 248.632812 244.757812 247.6875 245.75 246.71875 246.71875 C 245.75 247.6875 244.757812 248.632812 243.742188 249.554688 C 242.726562 250.476562 241.6875 251.371094 240.628906 252.238281 C 239.570312 253.109375 238.488281 253.953125 237.386719 254.769531 C 236.285156 255.585938 235.164062 256.375 234.027344 257.136719 C 232.886719 257.898438 231.726562 258.632812 230.550781 259.335938 C 229.375 260.042969 228.183594 260.714844 226.972656 261.363281 C 225.765625 262.007812 224.542969 262.625 223.300781 263.210938 C 222.0625 263.796875 220.808594 264.351562 219.542969 264.878906 C 218.277344 265.402344 217 265.894531 215.707031 266.355469 C 214.417969 266.820312 213.113281 267.25 211.804688 267.648438 C 210.492188 268.046875 209.171875 268.410156 207.839844 268.742188 C 206.511719 269.078125 205.171875 269.378906 203.828125 269.644531 C 202.484375 269.910156 201.132812 270.144531 199.777344 270.347656 C 198.421875 270.546875 197.0625 270.714844 195.699219 270.851562 C 194.332031 270.984375 192.964844 271.085938 191.597656 271.152344 C 190.226562 271.21875 188.859375 271.253906 187.488281 271.253906 C 186.117188 271.253906 184.746094 271.21875 183.375 271.152344 C 182.007812 271.085938 180.640625 270.984375 179.277344 270.851562 C 177.910156 270.714844 176.550781 270.546875 175.195312 270.347656 C 173.839844 270.144531 172.488281 269.910156 171.144531 269.644531 C 169.800781 269.378906 168.464844 269.078125 167.132812 268.742188 C 165.804688 268.410156 164.484375 268.046875 163.171875 267.648438 C 161.859375 267.25 160.558594 266.820312 159.265625 266.355469 C 157.976562 265.894531 156.695312 265.402344 155.429688 264.878906 C 154.164062 264.351562 152.910156 263.796875 151.671875 263.210938 C 150.433594 262.625 149.207031 262.007812 148 261.363281 C 146.789062 260.714844 145.597656 260.042969 144.421875 259.335938 C 143.246094 258.632812 142.089844 257.898438 140.949219 257.136719 C 139.808594 256.375 138.6875 255.585938 137.585938 254.769531 C 136.484375 253.953125 135.40625 253.109375 134.34375 252.238281 C 133.285156 251.371094 132.25 250.476562 131.230469 249.554688 C 130.214844 248.632812 129.222656 247.6875 128.253906 246.71875 C 127.285156 245.75 126.339844 244.757812 125.417969 243.742188 C 124.5 242.726562 123.605469 241.6875 122.734375 240.628906 C 121.863281 239.570312 121.019531 238.488281 120.203125 237.386719 C 119.386719 236.285156 118.597656 235.164062 117.835938 234.027344 C 117.074219 232.886719 116.34375 231.726562 115.636719 230.550781 C 114.933594 229.375 114.257812 228.183594 113.609375 226.972656 C 112.964844 225.765625 112.347656 224.542969 111.761719 223.300781 C 111.175781 222.0625 110.621094 220.808594 110.097656 219.542969 C 109.570312 218.277344 109.078125 217 108.617188 215.707031 C 108.15625 214.417969 107.726562 213.113281 107.328125 211.804688 C 106.929688 210.492188 106.5625 209.171875 106.230469 207.839844 C 105.898438 206.511719 105.597656 205.171875 105.328125 203.828125 C 105.0625 202.484375 104.828125 201.132812 104.625 199.777344 C 104.425781 198.421875 104.257812 197.0625 104.125 195.699219 C 103.988281 194.332031 103.886719 192.964844 103.820312 191.597656 C 103.753906 190.226562 103.71875 188.859375 103.71875 187.488281 C 103.71875 186.117188 103.753906 184.746094 103.820312 183.375 C 103.886719 182.007812 103.988281 180.640625 104.125 179.277344 C 104.257812 177.910156 104.425781 176.550781 104.625 175.195312 C 104.828125 173.839844 105.0625 172.488281 105.328125 171.144531 C 105.597656 169.800781 105.898438 168.464844 106.230469 167.132812 C 106.5625 165.804688 106.929688 164.484375 107.328125 163.171875 C 107.726562 161.859375 108.15625 160.558594 108.617188 159.265625 C 109.078125 157.976562 109.570312 156.695312 110.097656 155.429688 C 110.621094 154.164062 111.175781 152.910156 111.761719 151.671875 C 112.347656 150.433594 112.964844 149.207031 113.609375 148 C 114.257812 146.789062 114.933594 145.597656 115.636719 144.421875 C 116.34375 143.246094 117.074219 142.089844 117.835938 140.949219 C 118.597656 139.808594 119.386719 138.6875 120.203125 137.585938 C 121.019531 136.484375 121.863281 135.40625 122.734375 134.34375 C 123.605469 133.285156 124.5 132.25 125.417969 131.230469 C 126.339844 130.214844 127.285156 129.222656 128.253906 128.253906 C 129.222656 127.285156 130.214844 126.339844 131.230469 125.417969 C 132.25 124.5 133.285156 123.605469 134.34375 122.734375 C 135.40625 121.863281 136.484375 121.019531 137.585938 120.203125 C 138.6875 119.386719 139.808594 118.597656 140.949219 117.835938 C 142.089844 117.074219 143.246094 116.34375 144.421875 115.636719 C 145.597656 114.933594 146.789062 114.257812 148 113.609375 C 149.207031 112.964844 150.433594 112.347656 151.671875 111.761719 C 152.910156 111.175781 154.164062 110.621094 155.429688 110.097656 C 156.695312 109.570312 157.976562 109.078125 159.265625 108.617188 C 160.558594 108.15625 161.859375 107.726562 163.171875 107.328125 C 164.484375 106.929688 165.804688 106.5625 167.132812 106.230469 C 168.464844 105.898438 169.800781 105.597656 171.144531 105.328125 C 172.488281 105.0625 173.839844 104.828125 175.195312 104.625 C 176.550781 104.425781 177.910156 104.257812 179.277344 104.125 C 180.640625 103.988281 182.007812 103.886719 183.375 103.820312 C 184.746094 103.753906 186.117188 103.71875 187.488281 103.71875 C 188.859375 103.71875 190.226562 103.753906 191.597656 103.820312 C 192.964844 103.886719 194.332031 103.988281 195.699219 104.125 C 197.0625 104.257812 198.421875 104.425781 199.777344 104.625 C 201.132812 104.828125 202.484375 105.0625 203.828125 105.328125 C 205.171875 105.597656 206.511719 105.898438 207.839844 106.230469 C 209.171875 106.5625 210.492188 106.929688 211.804688 107.328125 C 213.113281 107.726562 214.417969 108.15625 215.707031 108.617188 C 217 109.078125 218.277344 109.570312 219.542969 110.097656 C 220.808594 110.621094 222.0625 111.175781 223.300781 111.761719 C 224.542969 112.347656 225.765625 112.964844 226.972656 113.609375 C 228.183594 114.257812 229.375 114.933594 230.550781 115.636719 C 231.726562 116.34375 232.886719 117.074219 234.027344 117.835938 C 235.164062 118.597656 236.285156 119.386719 237.386719 120.203125 C 238.488281 121.019531 239.570312 121.863281 240.628906 122.734375 C 241.6875 123.605469 242.726562 124.5 243.742188 125.417969 C 244.757812 126.339844 245.75 127.285156 246.71875 128.253906 C 247.6875 129.222656 248.632812 130.214844 249.554688 131.230469 C 250.476562 132.25 251.371094 133.285156 252.238281 134.34375 C 253.109375 135.40625 253.953125 136.484375 254.769531 137.585938 C 255.585938 138.6875 256.375 139.808594 257.136719 140.949219 C 257.898438 142.089844 258.632812 143.246094 259.335938 144.421875 C 260.042969 145.597656 260.714844 146.789062 261.363281 148 C 262.007812 149.207031 262.625 150.433594 263.210938 151.671875 C 263.796875 152.910156 264.351562 154.164062 264.878906 155.429688 C 265.402344 156.695312 265.894531 157.976562 266.355469 159.265625 C 266.820312 160.558594 267.25 161.859375 267.648438 163.171875 C 268.046875 164.484375 268.410156 165.804688 268.742188 167.132812 C 269.078125 168.464844 269.378906 169.800781 269.644531 171.144531 C 269.910156 172.488281 270.144531 173.839844 270.347656 175.195312 C 270.546875 176.550781 270.714844 177.910156 270.851562 179.277344 C 270.984375 180.640625 271.085938 182.007812 271.152344 183.375 C 271.21875 184.746094 271.253906 186.117188 271.253906 187.488281 Z M 271.253906 187.488281 " fill-opacity="1" fill-rule="nonzero"/><path fill="#081f49" d="M 276.15625 98.816406 L 215.519531 187.488281 L 276.15625 276.15625 L 187.488281 215.519531 L 98.816406 276.15625 L 159.453125 187.488281 L 98.816406 98.816406 L 187.488281 159.453125 Z M 276.15625 98.816406 " fill-opacity="1" fill-rule="nonzero"/><path fill="#b7e5ff" d="M 187.488281 9.097656 L 215.6875 159.289062 L 365.875 187.488281 L 215.6875 215.683594 L 187.488281 365.875 L 159.289062 215.683594 L 9.097656 187.488281 L 159.289062 159.289062 Z M 187.488281 9.097656 " fill-opacity="1" fill-rule="nonzero"/><g clip-path="url(#73307c3eb1)"><path fill="#000000" d="M 187.488281 368.578125 C 186.1875 368.578125 185.070312 367.652344 184.832031 366.375 L 156.976562 218 L 8.601562 190.144531 C 7.324219 189.902344 6.398438 188.785156 6.398438 187.488281 C 6.398438 186.1875 7.324219 185.070312 8.601562 184.832031 L 156.976562 156.976562 L 184.832031 8.601562 C 185.074219 7.324219 186.1875 6.398438 187.488281 6.398438 C 188.785156 6.398438 189.902344 7.324219 190.140625 8.601562 L 218 156.976562 L 366.375 184.832031 C 367.652344 185.074219 368.578125 186.1875 368.578125 187.488281 C 368.578125 188.785156 367.652344 189.902344 366.375 190.144531 L 218 218 L 190.140625 366.375 C 189.902344 367.652344 188.785156 368.578125 187.488281 368.578125 Z M 23.742188 187.488281 L 159.789062 213.03125 C 160.882812 213.234375 161.738281 214.089844 161.945312 215.1875 L 187.488281 351.234375 L 213.03125 215.1875 C 213.234375 214.089844 214.089844 213.234375 215.1875 213.03125 L 351.234375 187.488281 L 215.1875 161.945312 C 214.089844 161.738281 213.234375 160.882812 213.03125 159.789062 L 187.488281 23.742188 L 161.945312 159.789062 C 161.738281 160.882812 160.882812 161.738281 159.789062 161.945312 Z M 23.742188 187.488281 " fill-opacity="1" fill-rule="nonzero"/></g><g clip-path="url(#136dc1f22d)"><path fill="#000000" d="M 187.488281 368.578125 C 185.996094 368.578125 184.785156 367.367188 184.785156 365.875 L 184.785156 9.097656 C 184.785156 7.605469 185.996094 6.398438 187.488281 6.398438 C 188.980469 6.398438 190.1875 7.605469 190.1875 9.097656 L 190.1875 365.875 C 190.1875 367.367188 188.980469 368.578125 187.488281 368.578125 Z M 187.488281 368.578125 " fill-opacity="1" fill-rule="nonzero"/></g><path fill="#000000" d="M 365.195312 190.1875 L 9.777344 190.1875 C 8.285156 190.1875 7.078125 188.976562 7.078125 187.488281 C 7.078125 185.996094 8.285156 184.785156 9.777344 184.785156 L 365.195312 184.785156 C 366.6875 184.785156 367.898438 185.996094 367.898438 187.488281 C 367.898438 188.976562 366.6875 190.1875 365.195312 190.1875 Z M 365.195312 190.1875 " fill-opacity="1" fill-rule="nonzero"/><path fill="#000000" d="M 187.488281 356.675781 C 94.195312 356.675781 18.296875 280.777344 18.296875 187.488281 C 18.296875 94.195312 94.195312 18.296875 187.488281 18.296875 C 280.78125 18.296875 356.675781 94.195312 356.675781 187.488281 C 356.675781 280.777344 280.78125 356.675781 187.488281 356.675781 Z M 187.488281 23.699219 C 97.175781 23.699219 23.699219 97.175781 23.699219 187.488281 C 23.699219 277.800781 97.175781 351.273438 187.488281 351.273438 C 277.800781 351.273438 351.273438 277.800781 351.273438 187.488281 C 351.273438 97.175781 277.800781 23.699219 187.488281 23.699219 Z M 187.488281 23.699219 " fill-opacity="1" fill-rule="nonzero"/><path fill="#000000" d="M 187.488281 339.777344 C 103.511719 339.777344 35.195312 271.460938 35.195312 187.488281 C 35.195312 103.511719 103.511719 35.195312 187.488281 35.195312 C 271.460938 35.195312 339.777344 103.511719 339.777344 187.488281 C 339.777344 271.460938 271.460938 339.777344 187.488281 339.777344 Z M 187.488281 40.601562 C 106.492188 40.601562 40.601562 106.492188 40.601562 187.488281 C 40.601562 268.480469 106.492188 334.375 187.488281 334.375 C 268.480469 334.375 334.375 268.480469 334.375 187.488281 C 334.375 106.492188 268.480469 40.601562 187.488281 40.601562 Z M 187.488281 40.601562 " fill-opacity="1" fill-rule="nonzero"/><path fill="#000000" d="M 55.355469 322.320312 C 54.664062 322.320312 53.972656 322.058594 53.445312 321.527344 C 52.390625 320.472656 52.390625 318.761719 53.445312 317.710938 L 78.902344 292.253906 C 79.957031 291.199219 81.667969 291.199219 82.722656 292.253906 C 83.777344 293.308594 83.777344 295.019531 82.722656 296.074219 L 57.265625 321.527344 C 56.738281 322.058594 56.046875 322.320312 55.355469 322.320312 Z M 55.355469 322.320312 " fill-opacity="1" fill-rule="nonzero"/><path fill="#000000" d="M 294.007812 83.667969 C 293.316406 83.667969 292.625 83.402344 292.097656 82.875 C 291.042969 81.820312 291.042969 80.109375 292.097656 79.054688 L 317.707031 53.445312 C 318.761719 52.390625 320.472656 52.390625 321.527344 53.445312 C 322.582031 54.5 322.582031 56.210938 321.527344 57.265625 L 295.917969 82.875 C 295.390625 83.402344 294.699219 83.667969 294.007812 83.667969 Z M 294.007812 83.667969 " fill-opacity="1" fill-rule="nonzero"/><path fill="#000000" d="M 80.0625 82.765625 C 79.371094 82.765625 78.679688 82.5 78.152344 81.972656 L 53.445312 57.265625 C 52.390625 56.210938 52.390625 54.5 53.445312 53.445312 C 54.5 52.390625 56.210938 52.390625 57.265625 53.445312 L 81.972656 78.152344 C 83.027344 79.207031 83.027344 80.917969 81.972656 81.972656 C 81.445312 82.5 80.753906 82.765625 80.0625 82.765625 Z M 80.0625 82.765625 " fill-opacity="1" fill-rule="nonzero"/><path fill="#000000" d="M 319.617188 322.320312 C 318.925781 322.320312 318.234375 322.058594 317.707031 321.527344 L 292.445312 296.269531 C 291.390625 295.210938 291.390625 293.503906 292.445312 292.445312 C 293.5 291.390625 295.210938 291.394531 296.265625 292.445312 L 321.527344 317.710938 C 322.582031 318.761719 322.582031 320.472656 321.527344 321.527344 C 321 322.058594 320.308594 322.320312 319.617188 322.320312 Z M 319.617188 322.320312 " fill-opacity="1" fill-rule="nonzero"/><path fill="#000000" d="M 159.5625 218.113281 C 158.871094 218.113281 158.179688 217.847656 157.652344 217.320312 C 156.597656 216.265625 156.597656 214.554688 157.652344 213.5 L 213.75 157.40625 C 214.804688 156.351562 216.515625 156.351562 217.570312 157.40625 C 218.625 158.460938 218.625 160.171875 217.570312 161.226562 L 161.472656 217.320312 C 160.945312 217.847656 160.253906 218.113281 159.5625 218.113281 Z M 159.5625 218.113281 " fill-opacity="1" fill-rule="nonzero"/><path fill="#000000" d="M 214.65625 217.359375 C 213.964844 217.359375 213.273438 217.09375 212.746094 216.566406 L 157.300781 161.121094 C 156.246094 160.066406 156.246094 158.355469 157.300781 157.300781 C 158.355469 156.246094 160.066406 156.246094 161.121094 157.300781 L 216.566406 212.746094 C 217.621094 213.800781 217.621094 215.511719 216.566406 216.566406 C 216.039062 217.09375 215.347656 217.359375 214.65625 217.359375 Z M 214.65625 217.359375 " fill-opacity="1" fill-rule="nonzero"/></svg>