<svg xmlns="http://www.w3.org/2000/svg" xmlns:xlink="http://www.w3.org/1999/xlink" version="1.1" width="256" height="256" viewBox="0 0 256 256" xml:space="preserve">

<defs>
</defs>
<g style="stroke: none; stroke-width: 0; stroke-dasharray: none; stroke-linecap: butt; stroke-linejoin: miter; stroke-miterlimit: 10; fill: none; fill-rule: nonzero; opacity: 1;" transform="translate(45.02412451361867 45.024124513618645) scale(1.83 1.83)" >
	<path d="M 2.765 60.564 c 4.03 -31.346 20.652 -46.836 55.593 -39.078 l -0.182 -0.008 c -0.096 2.185 0.67 4.673 2.295 6.866 C 45.067 45.049 29.327 61.297 13.8 77.416 l -0.006 0.006 c -4.851 -4.67 -8.656 -10.418 -11.03 -16.858 L 2.765 60.564 z" style="stroke: none; stroke-width: 1; stroke-dasharray: none; stroke-linecap: butt; stroke-linejoin: miter; stroke-miterlimit: 10; fill: rgb(255,222,85); fill-rule: nonzero; opacity: 1;" transform=" matrix(1 0 0 1 0 0) " stroke-linecap="round" />
	<path d="M 73.428 28.897 c -0.351 1.153 -1 2.142 -1.949 2.845 c -0.642 0.476 -1.369 0.782 -2.146 0.93 l -0.002 -0.01 c -0.356 26.41 -10.293 46.294 -36.068 55.788 l -0.001 0.004 C 37.005 89.462 40.94 90 45 90 c 23.175 0 42.258 -17.519 44.729 -40.035 l 0 0 C 88.259 38.132 82.125 32.338 73.428 28.897 L 73.428 28.897 z" style="stroke: none; stroke-width: 1; stroke-dasharray: none; stroke-linecap: butt; stroke-linejoin: miter; stroke-miterlimit: 10; fill: rgb(255,222,85); fill-rule: nonzero; opacity: 1;" transform=" matrix(1 0 0 1 0 0) " stroke-linecap="round" />
	<path d="M 77.949 14.35 C 69.733 5.522 58.011 0 45 0 c -1.399 0 -2.783 0.064 -4.15 0.189 l 0 0 c 7.125 4.013 12.611 9.67 21.072 15.868 c 2.773 -0.889 6.37 0.452 8.943 3.45 l -0.001 0.001 c 3.475 -0.363 5.675 -2.278 7.081 -5.156 L 77.949 14.35 z" style="stroke: none; stroke-width: 1; stroke-dasharray: none; stroke-linecap: butt; stroke-linejoin: miter; stroke-miterlimit: 10; fill: rgb(255,222,85); fill-rule: nonzero; opacity: 1;" transform=" matrix(1 0 0 1 0 0) " stroke-linecap="round" />
	<path d="M 77.941 14.356 l -7.076 5.152 l 0.001 -0.001 c -2.573 -2.998 -6.171 -4.338 -8.943 -3.45 C 56.653 8.452 49.29 3.631 40.868 0.197 C 17.953 2.284 0 21.541 0 45 c 0 5.471 0.976 10.714 2.764 15.564 l 0.001 0 C 9.162 32.102 25.12 15.803 58.358 21.486 l -0.182 -0.008 c -0.096 2.185 0.67 4.673 2.295 6.866 C 43.147 43.742 27.48 60.04 13.8 77.416 l -0.006 0.006 c 5.382 5.181 12.055 9.023 19.483 11.023 c 27.966 -8.494 38.081 -28.294 36.054 -55.783 l 0.002 0.01 c 0.777 -0.148 1.504 -0.455 2.146 -0.93 c 0.948 -0.703 1.598 -1.692 1.948 -2.845 c 0 0 0 0 0 0 l 0 0 v 0 c 7.792 5.135 13.315 12.069 16.295 21.052 C 89.901 48.323 90 46.673 90 45 C 90 33.158 85.419 22.391 77.941 14.356 z" style="stroke: none; stroke-width: 1; stroke-dasharray: none; stroke-linecap: butt; stroke-linejoin: miter; stroke-miterlimit: 10; fill: rgb(89,96,247); fill-rule: nonzero; opacity: 1;" transform=" matrix(1 0 0 1 0 0) " stroke-linecap="round" />
	<ellipse cx="65.958" cy="24.284" rx="7.888" ry="10.734" style="stroke: none; stroke-width: 1; stroke-dasharray: none; stroke-linecap: butt; stroke-linejoin: miter; stroke-miterlimit: 10; fill: rgb(255,232,139); fill-rule: nonzero; opacity: 1;" transform=" matrix(0.8035 -0.5953 0.5953 0.8035 -1.4951 44.036) "/>
</g>
</svg>