<svg xmlns="http://www.w3.org/2000/svg" xmlns:xlink="http://www.w3.org/1999/xlink" version="1.1" width="256" height="256" viewBox="0 0 256 256" xml:space="preserve">

<defs>
</defs>
<g style="stroke: none; stroke-width: 0; stroke-dasharray: none; stroke-linecap: butt; stroke-linejoin: miter; stroke-miterlimit: 10; fill: none; fill-rule: nonzero; opacity: 1;" transform="translate(36.059143968871595 36.05914396887157) scale(2.03 2.03)" >
	<path d="M 30.464 83.691 c -0.798 0 -1.604 -0.238 -2.306 -0.733 c -1.804 -1.275 -2.232 -3.771 -0.957 -5.576 l 36.369 -51.44 c 1.276 -1.803 3.771 -2.233 5.576 -0.957 c 1.804 1.275 2.231 3.771 0.957 5.575 l -36.37 51.441 C 32.955 83.103 31.719 83.691 30.464 83.691 z" style="stroke: none; stroke-width: 1; stroke-dasharray: none; stroke-linecap: butt; stroke-linejoin: miter; stroke-miterlimit: 10; fill: rgb(255,180,15); fill-rule: nonzero; opacity: 1;" transform=" matrix(1 0 0 1 0 0) " stroke-linecap="round" />
	<path d="M 86 47.638 H 69.306 c -1.965 0 -3.639 -1.427 -3.949 -3.367 l -2.469 -15.387 c -0.351 -2.181 1.135 -4.233 3.315 -4.583 c 2.178 -0.348 4.233 1.134 4.583 3.316 l 1.929 12.021 H 86 c 2.209 0 4 1.791 4 4 S 88.209 47.638 86 47.638 z" style="stroke: none; stroke-width: 1; stroke-dasharray: none; stroke-linecap: butt; stroke-linejoin: miter; stroke-miterlimit: 10; fill: rgb(255,180,15); fill-rule: nonzero; opacity: 1;" transform=" matrix(1 0 0 1 0 0) " stroke-linecap="round" />
	<path d="M 53.02 83.691 c -0.798 0 -1.604 -0.238 -2.306 -0.733 c -1.804 -1.275 -2.231 -3.771 -0.957 -5.576 l 10.914 -15.436 l -2.525 -1.194 c -1.997 -0.944 -2.851 -3.329 -1.906 -5.326 c 0.945 -1.997 3.327 -2.85 5.326 -1.906 l 6.831 3.23 c 1.068 0.506 1.858 1.457 2.159 2.601 c 0.3 1.143 0.079 2.359 -0.603 3.325 L 56.29 82.001 C 55.51 83.103 54.274 83.691 53.02 83.691 z" style="stroke: none; stroke-width: 1; stroke-dasharray: none; stroke-linecap: butt; stroke-linejoin: miter; stroke-miterlimit: 10; fill: rgb(255,180,15); fill-rule: nonzero; opacity: 1;" transform=" matrix(1 0 0 1 0 0) " stroke-linecap="round" />
	<path d="M 39.087 41.077 c -0.798 0 -1.604 -0.238 -2.306 -0.734 c -1.804 -1.275 -2.232 -3.771 -0.957 -5.575 l 11.431 -16.169 c 1.122 -1.586 3.219 -2.138 4.977 -1.307 l 5.844 2.763 c 1.997 0.944 2.851 3.329 1.906 5.326 c -0.943 1.997 -3.326 2.852 -5.326 1.907 l -2.807 -1.327 l -9.493 13.427 C 41.578 40.488 40.342 41.077 39.087 41.077 z" style="stroke: none; stroke-width: 1; stroke-dasharray: none; stroke-linecap: butt; stroke-linejoin: miter; stroke-miterlimit: 10; fill: rgb(255,180,15); fill-rule: nonzero; opacity: 1;" transform=" matrix(1 0 0 1 0 0) " stroke-linecap="round" />
	<circle cx="76.422" cy="18.082" r="6.942" style="stroke: none; stroke-width: 1; stroke-dasharray: none; stroke-linecap: butt; stroke-linejoin: miter; stroke-miterlimit: 10; fill: rgb(255,180,15); fill-rule: nonzero; opacity: 1;" transform="  matrix(1 0 0 1 0 0) "/>
	<circle cx="71.929" cy="12.759" r="2.419" style="stroke: none; stroke-width: 1; stroke-dasharray: none; stroke-linecap: butt; stroke-linejoin: miter; stroke-miterlimit: 10; fill: rgb(255,180,15); fill-rule: nonzero; opacity: 1;" transform="  matrix(1 0 0 1 0 0) "/>
	<path d="M 69.829 11.907 c -4.5 3.11 -7.777 -1.171 -12.114 -1.594 c -0.92 -0.09 -1.358 1.124 -0.566 1.601 c 5.113 3.077 7.195 10.573 13.041 2.144" style="stroke: none; stroke-width: 1; stroke-dasharray: none; stroke-linecap: butt; stroke-linejoin: miter; stroke-miterlimit: 10; fill: rgb(255,180,15); fill-rule: nonzero; opacity: 1;" transform=" matrix(1 0 0 1 0 0) " stroke-linecap="round" />
	<path d="M 36.104 51.228 H 2 c -1.104 0 -2 -0.896 -2 -2 s 0.896 -2 2 -2 h 34.104 c 1.104 0 2 0.896 2 2 S 37.208 51.228 36.104 51.228 z" style="stroke: none; stroke-width: 1; stroke-dasharray: none; stroke-linecap: butt; stroke-linejoin: miter; stroke-miterlimit: 10; fill: rgb(132,132,132); fill-rule: nonzero; opacity: 1;" transform=" matrix(1 0 0 1 0 0) " stroke-linecap="round" />
	<path d="M 24.026 39.955 H 2 c -1.104 0 -2 -0.896 -2 -2 s 0.896 -2 2 -2 h 22.026 c 1.104 0 2 0.896 2 2 S 25.131 39.955 24.026 39.955 z" style="stroke: none; stroke-width: 1; stroke-dasharray: none; stroke-linecap: butt; stroke-linejoin: miter; stroke-miterlimit: 10; fill: rgb(132,132,132); fill-rule: nonzero; opacity: 1;" transform=" matrix(1 0 0 1 0 0) " stroke-linecap="round" />
	<path d="M 32.883 28.682 H 10.052 c -1.104 0 -2 -0.896 -2 -2 s 0.896 -2 2 -2 h 22.832 c 1.104 0 2 0.896 2 2 S 33.988 28.682 32.883 28.682 z" style="stroke: none; stroke-width: 1; stroke-dasharray: none; stroke-linecap: butt; stroke-linejoin: miter; stroke-miterlimit: 10; fill: rgb(132,132,132); fill-rule: nonzero; opacity: 1;" transform=" matrix(1 0 0 1 0 0) " stroke-linecap="round" />
	<path d="M 26.383 62.5 H 10.052 c -1.104 0 -2 -0.896 -2 -2 s 0.896 -2 2 -2 h 16.331 c 1.104 0 2 0.896 2 2 S 27.487 62.5 26.383 62.5 z" style="stroke: none; stroke-width: 1; stroke-dasharray: none; stroke-linecap: butt; stroke-linejoin: miter; stroke-miterlimit: 10; fill: rgb(132,132,132); fill-rule: nonzero; opacity: 1;" transform=" matrix(1 0 0 1 0 0) " stroke-linecap="round" />
</g>
</svg>