<svg xmlns="http://www.w3.org/2000/svg" xmlns:xlink="http://www.w3.org/1999/xlink" version="1.1" width="256" height="256" viewBox="0 0 256 256" xml:space="preserve">

<defs>
</defs>
<g style="stroke: none; stroke-width: 0; stroke-dasharray: none; stroke-linecap: butt; stroke-linejoin: miter; stroke-miterlimit: 10; fill: none; fill-rule: nonzero; opacity: 1;" transform="translate(40.54163424124515 40.54163424124512) scale(1.93 1.93)" >
	<path d="M 71.28 50.179 c -0.499 0 -1.002 -0.04 -1.505 -0.119 c -5.173 -0.82 -8.715 -5.695 -7.896 -10.867 c 0.82 -5.174 5.698 -8.717 10.867 -7.896 c 2.506 0.397 4.708 1.746 6.199 3.798 c 1.492 2.052 2.094 4.563 1.697 7.069 l 0 0 c -0.397 2.506 -1.746 4.708 -3.798 6.199 C 75.204 49.554 73.271 50.179 71.28 50.179 z" style="stroke: none; stroke-width: 1; stroke-dasharray: none; stroke-linecap: butt; stroke-linejoin: miter; stroke-miterlimit: 10; fill: rgb(0,132,252); fill-rule: nonzero; opacity: 1;" transform=" matrix(1 0 0 1 0 0) " stroke-linecap="round" />
	<path d="M 82.286 69.637 c -2.438 0 -4.876 -1.122 -7.246 -3.368 c -3.584 -3.395 -6.78 -3.396 -10.366 0 c -4.738 4.49 -9.751 4.49 -14.491 0 c -3.584 -3.395 -6.781 -3.395 -10.365 0 c -4.74 4.49 -9.75 4.49 -14.492 0 c -3.583 -3.396 -6.78 -3.396 -10.365 0 c -4.74 4.49 -9.752 4.49 -14.492 0 c -0.601 -0.569 -0.627 -1.519 -0.057 -2.12 c 0.569 -0.602 1.518 -0.628 2.121 -0.058 c 3.584 3.395 6.781 3.395 10.365 0 c 4.741 -4.491 9.751 -4.491 14.492 0 c 3.584 3.396 6.781 3.396 10.365 0 c 4.741 -4.491 9.752 -4.491 14.491 0 c 3.586 3.395 6.782 3.395 10.366 0 c 4.741 -4.491 9.752 -4.491 14.491 0 c 3.587 3.397 6.781 3.396 10.366 0 c 0.602 -0.569 1.551 -0.544 2.12 0.058 c 0.569 0.601 0.544 1.551 -0.058 2.12 C 87.161 68.515 84.724 69.637 82.286 69.637 z" style="stroke: none; stroke-width: 1; stroke-dasharray: none; stroke-linecap: butt; stroke-linejoin: miter; stroke-miterlimit: 10; fill: rgb(0,132,252); fill-rule: nonzero; opacity: 1;" transform=" matrix(1 0 0 1 0 0) " stroke-linecap="round" />
	<path d="M 32.571 61.637 c -2.438 0 -4.875 -1.123 -7.246 -3.368 c -2.008 -1.902 -3.896 -2.722 -5.785 -2.496 c -0.335 0.082 -0.695 0.043 -1.013 -0.114 c -0.452 -0.223 -0.762 -0.658 -0.824 -1.158 c -0.083 -0.664 0.28 -1.287 0.858 -1.556 L 41.028 39.8 c 1.157 -0.7 2.082 -1.795 2.584 -3.075 l 6.104 -15.533 c 0.762 -1.936 2.416 -3.414 4.425 -3.953 l 17.368 -4.664 c 3.288 -0.883 6.687 1.075 7.569 4.366 c 0.884 3.29 -1.074 6.686 -4.365 7.57 l -12.812 3.44 c -1.094 0.293 -1.994 1.098 -2.408 2.153 l -4.1 10.433 c -0.464 1.181 -0.35 2.533 0.306 3.617 L 64 57.171 c 0.41 0.644 0.272 1.493 -0.321 1.973 c -4.437 3.589 -9.103 3.286 -13.496 -0.874 c -3.584 -3.395 -6.781 -3.395 -10.365 0 C 37.447 60.514 35.009 61.637 32.571 61.637 z" style="stroke: none; stroke-width: 1; stroke-dasharray: none; stroke-linecap: butt; stroke-linejoin: miter; stroke-miterlimit: 10; fill: rgb(0,132,252); fill-rule: nonzero; opacity: 1;" transform=" matrix(1 0 0 1 0 0) " stroke-linecap="round" />
	<path d="M 82.286 77.637 c -2.438 0 -4.876 -1.122 -7.246 -3.368 c -3.584 -3.395 -6.78 -3.396 -10.366 0 c -4.738 4.49 -9.751 4.49 -14.491 0 c -3.584 -3.395 -6.781 -3.395 -10.365 0 c -4.74 4.49 -9.75 4.49 -14.492 0 c -3.583 -3.396 -6.78 -3.396 -10.365 0 c -4.74 4.49 -9.752 4.49 -14.492 0 c -0.601 -0.569 -0.627 -1.519 -0.057 -2.12 c 0.569 -0.602 1.518 -0.628 2.121 -0.058 c 3.584 3.395 6.781 3.395 10.365 0 c 4.741 -4.491 9.751 -4.491 14.492 0 c 3.584 3.396 6.781 3.396 10.365 0 c 4.741 -4.491 9.752 -4.491 14.491 0 c 3.586 3.395 6.782 3.395 10.366 0 c 4.741 -4.491 9.752 -4.491 14.491 0 c 3.587 3.397 6.781 3.396 10.366 0 c 0.602 -0.569 1.551 -0.544 2.12 0.058 c 0.569 0.601 0.544 1.551 -0.058 2.12 C 87.161 76.515 84.724 77.637 82.286 77.637 z" style="stroke: none; stroke-width: 1; stroke-dasharray: none; stroke-linecap: butt; stroke-linejoin: miter; stroke-miterlimit: 10; fill: rgb(0,132,252); fill-rule: nonzero; opacity: 1;" transform=" matrix(1 0 0 1 0 0) " stroke-linecap="round" />
</g>
</svg>